<svg width="2500" height="1134" viewBox="0 0 2500 1134" fill="none" xmlns="http://www.w3.org/2000/svg">
<path d="M821.681 392.72C895.623 392.72 955.565 332.778 955.565 258.836C955.565 184.894 895.623 124.952 821.681 124.952C747.739 124.952 687.797 184.894 687.797 258.836C687.797 332.778 747.739 392.72 821.681 392.72Z" fill="#FF6F01"/>
<path d="M616.3 273.537H242.417C227.919 273.537 216.165 285.29 216.165 299.789V509.203C216.165 523.701 227.918 535.455 242.417 535.455H445.681C502.515 535.455 548.588 581.528 548.588 638.362V948.808C548.588 973.952 568.972 994.336 594.116 994.336H795.88C821.024 994.336 841.408 973.952 841.408 948.808V535.455V452.077C841.408 441.452 832.792 432.841 822.167 432.848H821.682C740.409 432.848 672.189 377.119 653.065 301.796C648.821 285.083 633.543 273.537 616.3 273.537Z" fill="#FF6F01"/>
<path d="M958.764 424.893H1162.85V471.743H1087.25V677.598H1034.72V471.743H958.764V424.893Z" fill="white"/>
<path d="M1252.64 677.598H1200.11V424.893H1252.64V677.598Z" fill="white"/>
<path d="M1422.99 534.919L1456.95 424.892H1514.9L1425.57 677.597H1373.89L1284.94 424.892H1342.89L1377.95 534.919L1400.47 618.326L1422.99 534.919Z" fill="white"/>
<path d="M1737.62 648.493C1714.42 673.338 1685.68 685.76 1651.37 685.76C1617.06 685.76 1588.67 673.338 1566.19 648.493C1543.47 623.888 1532.12 591.35 1532.12 550.891C1532.12 511.139 1543.35 479.08 1565.83 454.707C1588.31 430.811 1616.82 418.859 1651.37 418.859C1685.68 418.859 1714.42 430.811 1737.62 454.707C1760.57 478.608 1772.04 510.668 1772.04 550.891C1772.04 591.35 1760.57 623.888 1737.62 648.493ZM1602.75 615.84C1614.58 632.167 1630.79 640.33 1651.37 640.33C1671.96 640.33 1688.51 632.167 1701.06 615.84C1713.36 599.753 1719.52 578.103 1719.52 550.89C1719.52 524.864 1713.36 503.924 1701.06 488.068C1688.75 472.218 1672.19 464.289 1651.37 464.289C1630.55 464.289 1614.33 472.219 1602.75 488.068C1590.68 504.162 1584.64 525.103 1584.64 550.89C1584.64 577.864 1590.68 599.515 1602.75 615.84Z" fill="white"/>
<path d="M1965.12 556.214C1977.66 558.821 1986.65 563.489 1992.09 570.234C1997.53 576.977 2001.08 586.028 2002.74 597.384L2013.03 677.598H1959.09L1953.05 612.647C1951.87 601.055 1948.38 592.655 1942.58 587.447C1936.78 582.244 1927.5 579.639 1914.72 579.639H1868.23V677.597H1815.7V424.893H1933.53C1961.45 424.893 1981.8 431.404 1994.58 444.414C2007.12 457.669 2013.39 474.35 2013.39 494.459C2013.39 527.111 1997.29 547.697 1965.12 556.214ZM1868.22 468.903V537.049H1918.62C1933.05 537.049 1943.88 533.915 1951.1 527.643C1958.31 521.376 1961.92 512.681 1961.92 501.555C1961.92 491.384 1958.91 483.399 1952.87 477.598C1946.84 471.803 1937.79 468.902 1925.72 468.902H1868.22V468.903Z" fill="white"/>
<path d="M2283.83 677.598H2227.76L2210.72 625.07H2119.15L2102.11 677.598H2046.39L2135.83 424.893H2196.52L2283.83 677.598ZM2143.64 550.536L2133.35 581.768H2196.88L2186.59 550.536L2165.29 477.777L2143.64 550.536Z" fill="white"/>
<path d="M1087.6 747.893V953.75H1210.76V1000.6H1035.07V747.893H1087.6Z" fill="#FF6F01"/>
<path d="M1476.6 1000.6H1420.52L1403.48 948.071H1311.91L1294.88 1000.6H1239.15L1328.6 747.893H1389.29L1476.6 1000.6ZM1336.4 873.537L1326.11 904.77H1389.64L1379.35 873.537L1358.05 800.776L1336.4 873.537Z" fill="#FF6F01"/>
<path d="M1660.35 863.243C1694.31 871.529 1711.29 892.586 1711.29 926.42C1711.29 947.955 1703.78 965.584 1688.77 979.305C1673.76 993.501 1652.6 1000.6 1625.28 1000.6H1502.37V747.893H1624.54C1648.66 747.893 1667.79 753.394 1681.94 764.397C1696.09 775.4 1703.17 790.485 1703.17 809.651C1703.17 823.138 1699.47 834.496 1692.09 843.723C1684.71 852.951 1674.13 859.461 1660.35 863.243ZM1614.95 790.485H1556.99V845.499H1612.73C1625.03 845.499 1634.26 843.013 1640.41 838.044C1646.56 833.077 1649.64 826.216 1649.64 817.459C1649.64 799.48 1638.07 790.485 1614.95 790.485ZM1556.99 956.234H1615.68C1629.46 956.234 1639.92 953.162 1647.06 947.007C1654.19 940.856 1657.76 932.337 1657.76 921.453C1657.76 910.805 1654.32 902.587 1647.43 896.784C1640.54 890.988 1630.82 888.088 1618.27 888.088H1556.99V956.234Z" fill="#FF6F01"/>
<path d="M1841.91 1008.76C1809.25 1008.76 1783.4 1001.07 1764.36 985.693C1745.31 970.313 1735.43 949.135 1734.72 922.162H1786.18C1786.89 936.125 1792.1 946.89 1801.8 954.46C1811.5 962.034 1824.75 965.818 1841.55 965.818C1855.98 965.818 1867.34 963.039 1875.62 957.477C1883.9 951.919 1888.05 944.167 1888.05 934.23C1888.05 925.948 1885.08 919.621 1879.17 915.24C1873.26 910.865 1863.32 906.899 1849.36 903.351L1802.87 891.638C1782.99 886.669 1767.67 878.151 1756.9 866.084C1746.13 854.016 1740.75 839.11 1740.75 821.364C1740.75 799.358 1748.92 780.67 1765.24 765.286C1781.33 749.908 1804.64 742.215 1835.16 742.215C1865.69 742.215 1890.06 749.791 1908.28 764.931C1926.5 780.315 1936.43 800.422 1938.09 825.267H1886.98C1885.33 812.73 1879.88 802.908 1870.66 795.81C1861.43 788.712 1849.72 785.162 1835.52 785.162C1822.74 785.162 1812.57 788.001 1805 793.68C1797.42 799.359 1793.64 806.697 1793.64 815.686C1793.64 829.649 1803.46 839.112 1823.1 844.079L1873.5 856.501C1919.4 867.625 1942.35 891.877 1942.35 929.262C1942.35 953.873 1933.42 973.273 1915.55 987.469C1897.69 1001.66 1873.14 1008.76 1841.91 1008.76Z" fill="#FF6F01"/>
</svg>
