<svg width="740" height="870" viewBox="0 0 740 870" fill="none" xmlns="http://www.w3.org/2000/svg">
<path d="M605.516 267.768C679.458 267.768 739.4 207.826 739.4 133.884C739.4 59.9419 679.458 0 605.516 0C531.574 0 471.632 59.9419 471.632 133.884C471.632 207.826 531.574 267.768 605.516 267.768Z" fill="#FF6F01"/>
<path d="M400.135 148.585H26.252C11.754 148.585 0 160.338 0 174.837V384.251C0 398.749 11.753 410.503 26.252 410.503H229.516C286.35 410.503 332.423 456.576 332.423 513.41V823.856C332.423 849 352.807 869.384 377.951 869.384H579.715C604.859 869.384 625.243 849 625.243 823.856V410.503V327.125C625.243 316.5 616.627 307.889 606.002 307.896H605.517C524.244 307.896 456.024 252.167 436.9 176.844C432.656 160.131 417.378 148.585 400.135 148.585Z" fill="#FF6F01"/>
</svg>
