<?xml version="1.0" encoding="iso-8859-1"?>
<!-- Generator: Adobe Illustrator 24.0.0, SVG Export Plug-In . SVG Version: 6.00 Build 0)  -->
<svg version="1.1" id="Layer_2" xmlns="http://www.w3.org/2000/svg" xmlns:xlink="http://www.w3.org/1999/xlink" x="0px" y="0px"
	 viewBox="0 0 2500 1133.714" style="enable-background:new 0 0 2500 1133.714;" xml:space="preserve">
<g>
	<circle style="fill:#FF6F01;" cx="821.681" cy="258.836" r="133.884"/>
	<path style="fill:#FF6F01;" d="M616.3,273.537H242.417c-14.498,0-26.252,11.753-26.252,26.252v209.414
		c0,14.498,11.753,26.252,26.252,26.252h203.264c56.834,0,102.907,46.073,102.907,102.907v310.446
		c0,25.144,20.384,45.528,45.528,45.528H795.88c25.144,0,45.528-20.384,45.528-45.528V535.455v-83.378
		c0-10.625-8.616-19.236-19.241-19.229l-0.485,0c-81.273,0-149.493-55.729-168.617-131.052
		C648.821,285.083,633.543,273.537,616.3,273.537z"/>
	<g>
		<path d="M958.764,424.893h204.082v46.85h-75.599v205.855h-52.529V471.743h-75.954V424.893z"/>
		<path d="M1252.638,677.598h-52.529V424.893h52.529V677.598z"/>
		<path d="M1422.987,534.919l33.959-110.027h57.951l-89.326,252.705h-51.679l-88.957-252.705h57.951l35.067,110.027l22.519,83.407
			L1422.987,534.919z"/>
		<path d="M1737.615,648.493c-23.192,24.845-51.94,37.267-86.245,37.267c-34.312,0-62.705-12.422-85.183-37.267
			c-22.714-24.605-34.072-57.143-34.072-97.602c0-39.752,11.235-71.811,33.717-96.184c22.478-23.896,50.988-35.848,85.538-35.848
			c34.306,0,63.053,11.952,86.245,35.848c22.95,23.901,34.429,55.961,34.429,96.184
			C1772.044,591.35,1760.565,623.888,1737.615,648.493z M1602.745,615.84c11.83,16.327,28.04,24.49,48.625,24.49
			s37.144-8.163,49.69-24.49c12.299-16.087,18.456-37.737,18.456-64.95c0-26.026-6.157-46.966-18.456-62.822
			c-12.308-15.85-28.871-23.779-49.69-23.779c-20.825,0-37.036,7.93-48.625,23.779c-12.068,16.094-18.101,37.035-18.101,62.822
			C1584.643,577.864,1590.677,599.515,1602.745,615.84z"/>
		<path d="M1965.118,556.214c12.539,2.607,21.528,7.275,26.974,14.02c5.441,6.743,8.991,15.794,10.648,27.15l10.294,80.214h-53.949
			l-6.034-64.951c-1.185-11.592-4.674-19.992-10.47-25.2c-5.8-5.203-15.084-7.808-27.862-7.808h-46.494v97.958h-52.528V424.893
			h117.834c27.917,0,48.27,6.511,61.048,19.521c12.539,13.255,18.811,29.936,18.811,50.045
			C2013.388,527.111,1997.294,547.697,1965.118,556.214z M1868.224,468.903v68.146h50.399c14.43,0,25.255-3.134,32.476-9.406
			c7.213-6.267,10.825-14.962,10.825-26.088c0-10.171-3.017-18.156-9.051-23.957c-6.034-5.795-15.084-8.696-27.152-8.696H1868.224z"
			/>
		<path d="M2283.835,677.598h-56.078l-17.037-52.528h-91.57l-17.037,52.528h-55.723l89.443-252.705h60.691L2283.835,677.598z
			 M2143.64,550.536l-10.293,31.232h63.531l-10.292-31.232l-21.297-72.759L2143.64,550.536z"/>
		<path style="fill:#FF6F01;" d="M1087.601,747.893V953.75h123.159v46.849h-175.688V747.893H1087.601z"/>
		<path style="fill:#FF6F01;" d="M1476.599,1000.599h-56.08l-17.035-52.528h-91.571l-17.037,52.528h-55.723l89.443-252.706h60.691
			L1476.599,1000.599z M1336.402,873.537l-10.292,31.233h63.529l-10.292-31.233l-21.297-72.761L1336.402,873.537z"/>
		<path style="fill:#FF6F01;" d="M1660.347,863.243c33.959,8.286,50.939,29.343,50.939,63.177c0,21.535-7.508,39.164-22.515,52.885
			c-15.013,14.196-36.174,21.295-63.49,21.295h-122.916V747.893h122.177c24.115,0,43.246,5.501,57.399,16.504
			c14.147,11.003,21.225,26.088,21.225,45.254c0,13.487-3.692,24.845-11.075,34.072
			C1684.709,852.951,1674.127,859.461,1660.347,863.243z M1614.945,790.485h-57.953v55.014h55.738
			c12.302,0,21.531-2.486,27.683-7.455c6.149-4.967,9.229-11.828,9.229-20.585C1649.643,799.48,1638.074,790.485,1614.945,790.485z
			 M1556.993,956.234h58.691c13.778,0,24.236-3.072,31.375-9.227c7.135-6.151,10.704-14.67,10.704-25.554
			c0-10.648-3.448-18.866-10.335-24.669c-6.891-5.796-16.61-8.696-29.16-8.696h-61.275V956.234z"/>
		<path style="fill:#FF6F01;" d="M1841.906,1008.762c-32.653,0-58.507-7.691-77.551-23.069
			c-19.049-15.38-28.926-36.558-29.636-63.531h51.464c0.71,13.963,5.913,24.728,15.618,32.298
			c9.699,7.574,22.948,11.358,39.751,11.358c14.43,0,25.788-2.779,34.072-8.341c8.28-5.558,12.422-13.31,12.422-23.247
			c0-8.282-2.962-14.609-8.872-18.99c-5.917-4.375-15.856-8.341-29.814-11.889l-46.494-11.713
			c-19.875-4.969-35.198-13.487-45.963-25.554c-10.769-12.068-16.149-26.974-16.149-44.72c0-22.006,8.163-40.694,24.49-56.078
			c16.087-15.378,39.396-23.071,69.92-23.071c30.524,0,54.891,7.576,73.115,22.716c18.216,15.384,28.155,35.491,29.812,60.336
			h-51.109c-1.657-12.537-7.098-22.359-16.325-29.457c-9.229-7.098-20.942-10.648-35.138-10.648
			c-12.777,0-22.954,2.839-30.524,8.518c-7.574,5.679-11.358,13.017-11.358,22.006c0,13.963,9.818,23.426,29.459,28.393
			l50.399,12.422c45.902,11.124,68.855,35.376,68.855,72.761c0,24.611-8.934,44.011-26.797,58.207
			C1897.685,1001.664,1873.14,1008.762,1841.906,1008.762z"/>
	</g>
</g>
</svg>
